<?xml version="1.0" encoding="UTF-8"?>
<svg id="_图层_1" data-name="图层 1" xmlns="http://www.w3.org/2000/svg" xmlns:xlink="http://www.w3.org/1999/xlink" viewBox="0 0 1024 1024">
  <defs>
    <style>
      .cls-1 {
        fill: #f1f1f1;
      }

      .cls-2 {
        filter: url(#drop-shadow-1);
      }

      .cls-3 {
        filter: url(#drop-shadow-2);
      }

      .cls-4 {
        fill: #7826e7;
      }

      .cls-5 {
        fill: #212121;
      }
    </style>
    <filter id="drop-shadow-1" x="362" y="846" width="322" height="151" filterUnits="userSpaceOnUse">
      <feOffset dx="12" dy="12"/>
      <feGaussianBlur result="blur" stdDeviation="10"/>
      <feFlood flood-color="#000" flood-opacity=".5"/>
      <feComposite in2="blur" operator="in"/>
      <feComposite in="SourceGraphic"/>
    </filter>
    <filter id="drop-shadow-2" x="186" y="415" width="681" height="183" filterUnits="userSpaceOnUse">
      <feOffset dx="12" dy="12"/>
      <feGaussianBlur result="blur-2" stdDeviation="10"/>
      <feFlood flood-color="#000" flood-opacity=".5"/>
      <feComposite in2="blur-2" operator="in"/>
      <feComposite in="SourceGraphic"/>
    </filter>
  </defs>
  <g id="_圆角" data-name="圆角">
    <path class="cls-1" d="M824,0H200C89.54,0,0,89.54,0,200v624c0,103.68,78.89,188.93,179.92,199h664.16c101.03-10.07,179.92-95.32,179.92-199V200c0-110.46-89.54-200-200-200Z"/>
    <path class="cls-4" d="M0,824c0,103.68,78.89,188.93,179.92,199h664.16c101.03-10.07,179.92-95.32,179.92-199v-13H0v13Z"/>
  </g>
  <g class="cls-2">
    <path class="cls-1" d="M465.04,945.77c-.3,1.95-1.05,3.6-2.25,4.97s-2.58,2.32-4.13,2.85c-1.55.53-3.2.6-4.95.2-1.75-.4-3.38-1.44-4.88-3.12-1.3-1.41-2.03-2.98-2.18-4.71-.15-1.72-.43-3.42-.83-5.1-1-4.86-2.45-9.86-4.35-14.98-6.21.09-12.36.13-18.46.13s-12.21.05-18.31.13c-.9,2.3-1.68,4.64-2.33,7.03-.65,2.39-1.28,4.73-1.88,7.03-.5,1.77-.95,3.6-1.35,5.5-.4,1.9-1.3,3.56-2.7,4.97-1.7,1.77-3.53,2.76-5.48,2.98-1.95.22-3.7-.07-5.25-.86-1.55-.8-2.8-2.01-3.75-3.65-.95-1.63-1.28-3.51-.98-5.64.3-2.74.9-5.44,1.8-8.09.9-2.65,1.75-5.3,2.55-7.96,4.5-15.2,10.31-29.92,17.41-44.15.6-1.24,1.22-2.43,1.88-3.58.65-1.15,1.28-2.3,1.88-3.45.7-1.24,1.4-2.56,2.1-3.98.7-1.41,1.52-2.72,2.48-3.91.95-1.19,2.08-2.21,3.38-3.05,1.3-.84,2.9-1.26,4.8-1.26,2.5,0,4.6.71,6.3,2.12,6.8,6.01,12.41,12.8,16.81,20.35,4.4,7.56,8.35,15.27,11.86,23.14,2.1-.09,4.15-.09,6.15,0,2,.09,3.8.88,5.4,2.39,1.4,1.24,2.23,2.56,2.48,3.98.25,1.42.1,2.78-.45,4.11-.55,1.33-1.45,2.48-2.7,3.45-1.25.97-2.78,1.64-4.58,1.99,1,3.1,1.88,6.25,2.63,9.48.75,3.23,1.37,6.48,1.88,9.75v.93ZM434.41,909.7c-1.9-3.98-3.93-7.93-6.08-11.87-2.15-3.93-4.58-7.67-7.28-11.2-2,3.89-3.88,7.76-5.63,11.6-1.75,3.84-3.38,7.76-4.88,11.73,4.7-.09,8.83-.13,12.38-.13s7.38-.04,11.48-.13Z"/>
    <path class="cls-1" d="M546.47,936.75c2.3.97,4.05,2.21,5.25,3.71,1.2,1.5,1.78,3.03,1.73,4.58-.05,1.55-.7,3.01-1.95,4.38-1.25,1.37-3.18,2.41-5.78,3.12-1,.27-2.4.42-4.2.46-1.8.04-4.3.07-7.51.07h-12.16c-4.9,0-10.96.04-18.16.13-1.8.09-3.65.13-5.55.13s-3.55-.58-4.95-1.72c-1.2-.88-2.08-2.23-2.63-4.04-.55-1.81-.9-3.71-1.05-5.7-.15-1.99-.2-3.98-.15-5.97.05-1.99.08-3.65.08-4.97,0-2.65.02-5.7.07-9.15.05-3.45.1-6.96.15-10.54.05-3.58.07-7.09.07-10.54v-9.15c0-4.68.05-8.46.15-11.34.1-2.87.32-5.13.68-6.76.35-1.63.92-2.83,1.73-3.58.8-.75,1.9-1.39,3.3-1.92,1.2-.44,2.53-.6,3.98-.46,1.45.13,2.8.49,4.05,1.06,1.25.58,2.3,1.37,3.15,2.39.85,1.02,1.28,2.14,1.28,3.38.2,10.61.2,21.13,0,31.56-.2,10.43-.3,20.86-.3,31.29,6.31,0,12.58-.07,18.84-.2,6.25-.13,12.58-.29,18.99-.46l.9.26Z"/>
    <path class="cls-1" d="M631.36,933.17c1.8.09,3.38.51,4.73,1.26,1.35.75,2.45,1.66,3.3,2.72.85,1.06,1.35,2.28,1.5,3.65.15,1.37-.18,2.76-.98,4.18-.3.62-.93,1.35-1.88,2.19-.95.84-1.83,1.35-2.63,1.53-6.41,1.68-12.98,2.72-19.74,3.12-6.76.4-13.44.29-20.04-.33-1.9-.18-3.98-.35-6.23-.53-2.25-.18-4.23-.75-5.93-1.72-3.1-1.77-4.65-4.29-4.65-7.56v-56.49c-1.1-.71-2-1.59-2.7-2.65-.7-1.06-1.13-2.19-1.28-3.38-.15-1.19.02-2.34.53-3.45.5-1.1,1.35-2.05,2.55-2.85,2-1.41,4.3-2.36,6.91-2.85,2.6-.49,5.15-.91,7.66-1.26,5.2-.71,10.41-1.06,15.61-1.06s10.51-.04,15.91-.13c1.6,0,3.45-.11,5.55-.33,2.1-.22,3.95-.07,5.55.46,1.9.62,3.4,1.59,4.5,2.92,1.1,1.33,1.75,2.74,1.95,4.24.2,1.5-.13,2.96-.98,4.38-.85,1.42-2.33,2.52-4.43,3.32-2.5.88-5.18,1.28-8.03,1.19-2.85-.09-5.58-.13-8.18-.13-3.8,0-7.61.05-11.41.13-3.8.09-7.61.35-11.41.8v18.43c3.6.18,7.21.18,10.81,0,3.6-.18,7.21-.4,10.81-.66,1.6-.09,3.2-.22,4.8-.4,1.6-.18,3.25-.18,4.95,0,2.2.26,3.9,1.06,5.1,2.39,1.2,1.33,1.93,2.81,2.18,4.44.25,1.64-.08,3.25-.98,4.84-.9,1.59-2.35,2.74-4.35,3.45-1.7.62-4,1.08-6.91,1.39-2.9.31-5.96.53-9.16.66-3.2.13-6.36.2-9.46.2s-5.71-.04-7.81-.13v16.31c5.5.62,11.06.71,16.66.26,5.6-.44,11.11-1.28,16.51-2.52h1.05Z"/>
  </g>
  <g class="cls-3">
    <path class="cls-5" d="M281.12,516.6c2.13-1.88,4.57-2.97,7.31-3.27,2.73-.29,5.24.03,7.51.97,2.27.94,4.03,2.45,5.3,4.51,1.27,2.06,1.57,4.51.9,7.34-.8,2.83-2.34,5.45-4.6,7.87-2.27,2.42-4.54,4.63-6.81,6.63-5.2,4.83-10.98,8.4-17.31,10.7-6.34,2.3-12.74,3.39-19.21,3.27-6.47-.12-12.81-1.48-19.01-4.07-6.2-2.59-11.78-6.48-16.71-11.67-2.94-3.06-5.4-6.3-7.41-9.72-2-3.42-3.54-7.01-4.6-10.78-1.6-5.54-2.34-11.32-2.2-17.33.13-6.01,1.2-11.85,3.2-17.5,2-5.66,4.83-10.99,8.51-16,3.67-5.01,8.17-9.28,13.51-12.82,3.87-2.59,7.77-4.83,11.71-6.72,3.93-1.88,8.11-3.65,12.51-5.3,2.53-.94,5.14-1.86,7.81-2.74,2.67-.88,5.4-1.56,8.21-2.03,2.8-.47,5.6-.65,8.41-.53,2.8.12,5.54.65,8.21,1.59,1.87.71,3.73,1.68,5.6,2.92,1.87,1.24,3.6,2.65,5.2,4.24,1.6,1.59,3,3.27,4.2,5.04,1.2,1.77,2.07,3.48,2.6,5.13.4,1.53.5,3.09.3,4.69-.2,1.59-.74,3.04-1.6,4.33-.87,1.3-2.04,2.39-3.5,3.27-1.47.88-3.14,1.44-5,1.68-3.07.35-5.44.06-7.11-.88-1.67-.94-3-2.12-4-3.54-1-1.41-1.97-2.8-2.9-4.15-.94-1.35-2.27-2.33-4-2.92-1.07,0-1.87.06-2.4.18-4.54,1.06-9.11,2.51-13.71,4.33-4.6,1.83-8.88,4.04-12.81,6.63-3.94,2.59-7.37,5.6-10.31,9.02-2.94,3.42-5.07,7.25-6.4,11.49-1.6,5.07-2.2,10.2-1.8,15.38.4,5.19,2,10.08,4.8,14.67,1.6,2.71,3.73,5.07,6.4,7.07,2.67,2,5.6,3.51,8.81,4.51,3.2,1,6.47,1.36,9.81,1.06,3.33-.29,6.54-1.33,9.61-3.09,2.67-1.65,5.07-3.68,7.21-6.1,2.13-2.41,4.07-4.86,5.8-7.34Z"/>
    <path class="cls-5" d="M431.33,487.43c3.2.83,5.6,2.33,7.21,4.51,1.6,2.18,2.37,4.45,2.3,6.81-.07,2.36-.9,4.57-2.5,6.63-1.6,2.06-3.94,3.39-7.01,3.98v30.76c0,2.95-.83,5.57-2.5,7.87-1.67,2.3-3.7,3.92-6.1,4.86-2.4.94-4.94,1.15-7.61.62-2.67-.53-5.07-2.09-7.21-4.69-.94-1.18-1.57-2.53-1.9-4.07-.33-1.53-.5-2.94-.5-4.24v-30.59h-46.64v30.06c0,1.3-.13,2.62-.4,3.98-.27,1.36-.73,2.56-1.4,3.62-1.74,2.83-3.94,4.65-6.6,5.48-2.67.82-5.27.8-7.81-.09-2.54-.88-4.7-2.42-6.5-4.6-1.8-2.18-2.7-4.86-2.7-8.04v-91.4c0-3.06,1.03-5.72,3.1-7.96,2.07-2.24,4.43-3.8,7.1-4.69,2.67-.88,5.37-.94,8.11-.18,2.73.77,4.77,2.62,6.1,5.57.4.94.67,1.8.8,2.56.13.77.2,1.62.2,2.56v39.96h46.64v-37.83c0-2.36.6-4.6,1.8-6.72,1.47-2.59,3.57-4.42,6.31-5.48,2.73-1.06,5.4-1.35,8.01-.88,2.6.47,4.87,1.62,6.81,3.45,1.93,1.83,2.9,4.33,2.9,7.51v40.66Z"/>
    <path class="cls-5" d="M522.7,529.15c3.47.12,6.34,1.03,8.61,2.74,2.27,1.71,3.73,3.69,4.4,5.92.67,2.24.47,4.45-.6,6.63-1.07,2.18-3.27,3.86-6.6,5.04-2.4.82-5.24,1.35-8.51,1.59-3.27.23-6.54.32-9.81.26-3.27-.06-6.3-.18-9.11-.35s-4.94-.26-6.4-.26h-11.81c-2.8,0-5.2-.68-7.21-2.03s-3.44-2.98-4.3-4.86c-.87-1.88-1.07-3.89-.6-6.01.47-2.12,1.7-4.07,3.7-5.83,1.87-1.65,4.33-2.59,7.41-2.83,3.07-.24,6.14-.24,9.21,0v-70.01c-3.07,0-5.94-.03-8.61-.09-2.67-.06-5.34-.91-8.01-2.56-2-1.3-3.34-2.8-4-4.51-.67-1.71-.77-3.42-.3-5.13.47-1.71,1.37-3.33,2.7-4.86,1.33-1.53,3-2.65,5-3.36,1.87-.71,3.8-1.06,5.8-1.06,6.81,0,13.64-.03,20.52-.09,6.87-.06,13.78-.03,20.72.09.67,0,1.3.18,1.9.53.6.35,1.23.65,1.9.88,3.07,1.53,5.13,3.71,6.2,6.54,1.07,2.83.67,5.6-1.2,8.31-.93,1.41-2.1,2.51-3.5,3.27-1.4.77-2.94,1.3-4.6,1.59-1.67.3-3.37.44-5.1.44h-5v70.36c1.07,0,2.03-.03,2.9-.09.87-.06,1.83-.15,2.9-.26h1.4Z"/>
    <path class="cls-5" d="M653.3,442.88c.8-2.36,2.1-4.3,3.9-5.83,1.8-1.53,3.77-2.53,5.91-3.01,2.13-.47,4.3-.35,6.5.35,2.2.71,4.1,2.12,5.7,4.24.53.59,1.03,1.3,1.5,2.12.47.83.7,1.59.7,2.3.27,16.86.17,33.68-.3,50.48-.47,16.8-1.24,33.62-2.3,50.48,0,2.71-.97,4.83-2.9,6.37-1.94,1.53-4.14,2.5-6.6,2.92-2.47.41-4.97.18-7.51-.71-2.54-.88-4.4-2.39-5.6-4.51-.13-.12-.2-.24-.2-.35v.35c-8.68-12.61-17.81-24.72-27.42-36.33-9.61-11.61-19.62-23.13-30.02-34.56v53.57c0,3.66-.07,6.63-.2,8.93-.13,2.3-.3,4.1-.5,5.39-.2,1.3-.5,2.42-.9,3.36-1.2,2.83-3.04,4.71-5.5,5.66-2.47.94-4.97,1.18-7.51.71-2.54-.47-4.74-1.65-6.6-3.54-1.87-1.89-2.8-4.24-2.8-7.07v-49.33c0-4.95-.03-9.57-.1-13.88-.07-4.3-.1-7.93-.1-10.87,0-4.01-.07-7.98-.2-11.93-.13-3.95-.13-7.93,0-11.93,0-2,.57-3.71,1.7-5.13,1.13-1.41,2.57-2.5,4.3-3.27,1.73-.77,3.6-1.21,5.6-1.33,2-.12,3.93.12,5.8.71,1.6.47,3.23,1.44,4.9,2.92,1.67,1.48,3.3,3.07,4.9,4.77,1.6,1.71,3.1,3.42,4.5,5.13,1.4,1.71,2.57,3.09,3.5,4.15,3.47,3.77,7.47,8.1,12.01,12.99,4.54,4.89,8.74,9.52,12.61,13.88,3.87,4.48,7.64,8.96,11.31,13.44,3.67,4.48,7.24,8.96,10.71,13.44.4-10.72.67-21.39.8-32,.13-10.61.2-21.27.2-32l.2-1.06Z"/>
    <path class="cls-5" d="M819.73,542.59c-.4,2.59-1.4,4.8-3,6.63s-3.44,3.09-5.5,3.8c-2.07.71-4.27.8-6.61.27-2.34-.53-4.5-1.92-6.5-4.16-1.74-1.88-2.7-3.98-2.9-6.28-.2-2.3-.57-4.57-1.1-6.81-1.34-6.48-3.27-13.14-5.8-19.98-8.28.12-16.48.18-24.62.18s-16.28.06-24.42.18c-1.2,3.07-2.24,6.19-3.1,9.37-.87,3.18-1.7,6.31-2.5,9.37-.67,2.36-1.27,4.8-1.8,7.34-.54,2.54-1.74,4.75-3.6,6.63-2.27,2.36-4.7,3.68-7.31,3.98-2.6.29-4.94-.09-7.01-1.15-2.07-1.06-3.74-2.68-5-4.86-1.27-2.18-1.7-4.68-1.3-7.51.4-3.65,1.2-7.25,2.4-10.78s2.33-7.07,3.4-10.61c6-20.27,13.74-39.9,23.22-58.87.8-1.65,1.63-3.24,2.5-4.77.87-1.53,1.7-3.06,2.5-4.6.93-1.65,1.87-3.42,2.8-5.3.93-1.88,2.03-3.62,3.3-5.22,1.27-1.59,2.77-2.94,4.5-4.07,1.73-1.12,3.87-1.68,6.4-1.68,3.33,0,6.14.94,8.41,2.83,9.07,8.02,16.54,17.06,22.42,27.14,5.87,10.08,11.14,20.36,15.81,30.85,2.8-.12,5.54-.12,8.21,0,2.67.12,5.07,1.18,7.21,3.18,1.87,1.65,2.97,3.42,3.3,5.3.33,1.89.13,3.71-.6,5.48-.73,1.77-1.94,3.3-3.6,4.6-1.67,1.3-3.7,2.18-6.1,2.65,1.33,4.13,2.5,8.34,3.5,12.64,1,4.3,1.83,8.64,2.5,13v1.24ZM778.9,494.5c-2.54-5.3-5.24-10.58-8.11-15.82-2.87-5.24-6.1-10.22-9.71-14.94-2.67,5.19-5.17,10.34-7.51,15.47-2.34,5.13-4.5,10.34-6.5,15.65,6.27-.12,11.77-.18,16.51-.18s9.84-.06,15.31-.18Z"/>
  </g>
</svg>